<?xml version="1.0" encoding="utf-8"?>
<!-- Generator: Adobe Illustrator 22.1.0, SVG Export Plug-In . SVG Version: 6.00 Build 0)  -->
<svg version="1.1" id="レイヤー_1" xmlns="http://www.w3.org/2000/svg" xmlns:xlink="http://www.w3.org/1999/xlink" x="0px"
	 y="0px" viewBox="0 0 354.1 142.2" style="enable-background:new 0 0 354.1 142.2;" xml:space="preserve">
<style type="text/css">
	.st0{fill:#005BAC;}
	.st1{fill:#00A0E9;}
</style>
<g>
	<path class="st0" d="M76.1,134.6v7.3h-1.8v-13.6h1.8v4.5c3.2,0.7,6.2,1.4,9.1,2.3v1.9C82.1,136.1,79.2,135.3,76.1,134.6z"/>
	<path class="st0" d="M100,133.1c-0.5,5.1-4,8.5-11,8.8v-1.7c4.9-0.4,7.8-2.3,8.8-5.7h-11v-1.6H100L100,133.1z M87.8,130.7V129H99
		v1.7H87.8z"/>
	<path class="st0" d="M109.6,134.4c-1.5-2.7-1.8-3-3.3-3h-0.5l-1.8,4c-0.6,1.3-1.4,2.2-2.7,2.6v-1.8c0.6-0.4,1-1.1,1.4-1.9l2-4.6
		h1.4c2.4,0,3.3,0.2,5.1,3.6c1.5,2.9,3,5.3,4.7,6.2v1.9C113.3,140.7,111.5,138.1,109.6,134.4z M110.9,131.2v-2.4h1.2v2.4H110.9z
		 M112.8,131.2v-2.4h1.2v2.4H112.8z"/>
	<path class="st0" d="M116.8,142.2v-2.1c1-1.1,2.2-2.6,2.2-7.3v-4h1.7v3.9C120.7,138.5,118.9,140.7,116.8,142.2z M122.8,141.8v-13
		h1.7v10.8c2.7-0.8,3.9-3.4,4.3-6.8h1.7C130.1,138.1,127.8,141.2,122.8,141.8z"/>
	<path class="st0" d="M139.9,136.6c-1.8,2.8-4.4,4.4-8,5.4v-1.7c2.8-0.8,5-2.1,6.4-4.4c-2-1-3.5-1.5-5.4-2.1V132
		c2,0.6,3.8,1.3,6.1,2.3c0.9-1.9,1.3-3.7,1.5-5.8h1.8c-0.2,2.2-0.8,4.4-1.7,6.5c1.6,0.8,2.9,1.6,4.2,2.5v2.1
		C143.3,138.6,141.8,137.6,139.9,136.6z"/>
	<path class="st0" d="M155.1,134.7c-0.5,4.2-3.4,6.5-7.3,7.1v-1.7c3.1-0.6,5-2.6,5.3-5.4h-6.8v-1.6H160v1.6H155.1z M157.8,132.5
		v-1.9h-10.4V129h11.2v1.3h0.3v2.2H157.8z M159.6,132.5v-2.2h1.1v2.2H159.6z"/>
	<path class="st0" d="M169.3,134.7v7.6h-1.7v-6.5c-1.7,0.9-3.6,1.5-5.8,1.9v-1.6c5.1-1.1,7.9-3.3,9.3-5.8h2
		C172.1,132.1,170.9,133.5,169.3,134.7z"/>
	<path class="st0" d="M180.6,137.2c-1,2.5-2.9,4-5.4,4.7v-1.7c2.8-1.1,4.3-3,4.3-6.9v-1h1.7v1.1c0,0.7,0,1.4-0.2,2
		c2.6-0.6,4-2.2,4.4-4.7h-10.8v-1.6h12.8v0.3C187.3,134.3,184.2,136.6,180.6,137.2z"/>
	<path class="st0" d="M193.5,142.1v-15.8h4c-0.2,0.4-2.3,3.4-2.3,7.9c0,4.5,2,7.6,2.3,7.9H193.5z"/>
	<path class="st0" d="M206,134.3v7.2h-2.8v-14.4h2.8v4.5c3.1,0.6,6.5,1.3,9.2,2v2.7C212.3,135.6,208.8,134.8,206,134.3z"/>
	<path class="st0" d="M218.6,141.3v-2.5c4.7-0.3,7.8-1.9,8.8-4.6h-10.7v-2.4h14v0.4C230.4,137.6,226.7,141.1,218.6,141.3z
		 M217.5,130.1v-2.5h12.3v2.5H217.5z"/>
	<path class="st0" d="M241.4,132.8v8.8h-2.8v-7.3c-2.2,0.9-4.5,1.4-6.6,1.7v-2.5c6.7-1.2,9.6-3.6,10.8-6.3h2.9
		C245,129.7,243.4,131.5,241.4,132.8z"/>
	<path class="st0" d="M247.4,134.6v-2.5c2.2,0.1,5.1,0.3,7.2,0.6v2.5C252.4,134.9,249.5,134.6,247.4,134.6z M247.6,130v-2.4
		c2.1,0.1,4.9,0.3,7.2,0.6v2.5C252.6,130.3,249.6,130,247.6,130z M247.8,141.2v-2.6c6.7-0.2,9.9-2.4,10.5-8.7h2.8
		C260.5,138.2,255.5,141.1,247.8,141.2z"/>
	<path class="st0" d="M262.5,134.8v-2.5h13.8v2.5H262.5z"/>
	<path class="st0" d="M284.2,126.3v15.8h-4c0.2-0.3,2.3-3.4,2.3-7.9c0-4.5-2-7.6-2.3-7.9H284.2z"/>
</g>
<g>
	<g>
		<path class="st1" d="M191.8,20.8h-6c0.2,2.6,1,5,2.1,7.2h4.9C192.2,25.7,191.9,23.3,191.8,20.8z"/>
		<path class="st1" d="M206.8,0v6.8h5.9C211.2,3.3,209.1,0.8,206.8,0z"/>
		<path class="st1" d="M213.8,10.2h-7v7.2h8.1C214.8,14.8,214.4,12.4,213.8,10.2z"/>
		<path class="st1" d="M203.3,0c-2.3,0.8-4.4,3.3-5.9,6.8h5.9V0z"/>
		<path class="st1" d="M203.3,17.4v-7.2h-7c-0.6,2.2-1,4.6-1.1,7.2H203.3z"/>
		<path class="st1" d="M192.8,10.2h-4.9c-1.1,2.2-1.9,4.6-2.1,7.2h6C191.9,14.8,192.2,12.4,192.8,10.2z"/>
		<path class="st1" d="M203.3,20.8h-8.2c0.1,2.6,0.5,5,1.1,7.2h7V20.8z"/>
		<path class="st1" d="M212.6,31.4h-5.9v6.4h-3.4v-6.4h-5.9c1.3,3.1,3.1,5.4,5.2,6.5c-3,0.1-4.5,1.6-4.5,4.7v61.2
			c0,3.1,1.6,4.7,4.7,4.7h4.7c3.1,0,4.7-1.6,4.7-4.7V42.5c0-3.1-1.6-4.7-4.7-4.7h-0.1C209.5,36.8,211.3,34.5,212.6,31.4z"/>
		<path class="st1" d="M206.8,20.8V28h7c0.6-2.2,1-4.6,1.1-7.2H206.8z"/>
		<path class="st1" d="M217.3,28h4.9c1.1-2.2,1.9-4.6,2.1-7.2h-6C218.2,23.3,217.9,25.7,217.3,28z"/>
		<path class="st1" d="M218.3,17.4h6c-0.2-2.6-1-5-2.1-7.2h-4.9C217.9,12.4,218.2,14.8,218.3,17.4z"/>
		<path class="st1" d="M220,6.8c-1.7-2.1-3.8-3.8-6.2-5c1,1.4,1.8,3.1,2.5,5H220z"/>
		<path class="st1" d="M196.3,1.8c-2.4,1.2-4.5,2.9-6.2,5h3.7C194.5,4.9,195.3,3.2,196.3,1.8z"/>
		<path class="st1" d="M190.1,31.4c1.7,2.1,3.8,3.8,6.2,5c-1-1.4-1.8-3.1-2.5-5H190.1z"/>
		<path class="st1" d="M213.8,36.4c2.4-1.2,4.5-2.9,6.2-5h-3.7C215.6,33.2,214.8,34.9,213.8,36.4z"/>
	</g>
	<g>
		<path class="st0" d="M82.2,108.4h-4.7c-3.1,0-4.7-1.6-4.7-4.7V53c0-9.4,4.1-15.2,16.3-15.2H111c3.1,0,4.7,1.6,4.7,4.7v4.7
			c0,3.1-1.6,4.7-4.7,4.7H96.1c-8.2,0-9.2,4-9.2,7.2v44.6C87,106.9,85.4,108.4,82.2,108.4z"/>
		<path class="st0" d="M176.3,108.4h-27.9c-18.8,0-23.8-4.7-23.8-14.1V80.2c0-9.8,3.6-14.1,22.2-14.1h15.4c3.1,0,4.7-1.6,4.7-4.7
			v-4.7c0-4.6-3.1-4.7-9.4-4.7h-28.2c-3.1,0-4.7-1.6-4.7-4.7v-4.7c0-3.1,1.6-4.7,4.7-4.7h30.3c18.8,0,21.5,5.4,21.5,16.4v49.5
			C181.1,106.9,179.5,108.4,176.3,108.4z M143.6,80.2c-3,0-4.9,1.7-4.9,4.7v4.7c0,3.1,1.8,4.7,4.4,4.7h19.1c3.1,0,4.7-1.6,4.7-4.7
			v-4.7c0-3.1-1.6-4.7-4.7-4.7H143.6z"/>
		<path class="st0" d="M301.8,37.8h4.2c3.5,0,5.2,1.6,5.2,4.7v27.1c0,3.1,0.8,6.7,7.8,6.7h15.7c4.6,0,4.8-3.5,4.8-6.7V42.5
			c0-3.1,1.6-4.7,4.7-4.7h4.7c3.1,0,4.7,1.6,4.7,4.7V43v56.9c0,7.1-1.6,8.6-4.7,8.6h-4.7c-3.1,0-4.7-1.6-4.7-4.7c0-1.8,0-8.6,0-8.6
			s-0.2-4.7-4.7-4.7h-19c-14.6,0-18.7-4.9-18.7-16.5V42.6C297.1,39.4,298.7,37.8,301.8,37.8z"/>
		<path class="st0" d="M347.4,13.7l-4.5,0.2l-10.4-8.8c-0.5-0.5-2.3,0-2.8,0c-0.7,0-0.5,1.1-0.2,1.7l3.9,7.6l-6.3,0.3l-3.9-5.6
			c-0.5-0.6-0.8-0.4-2.1-0.2c-0.5,0.1-0.5,0.3-0.5,0.6l0.2,5.4l0.1,1.2c0,0.6,0.2,1.1,0.5,1.7h-92.2v2.4h94.8
			c1.9,1.1,4.2,1.7,5.7,1.6l20.5-1.1c2.2-0.1,4-1,3.9-3.2C354,15.5,349.7,13.5,347.4,13.7z"/>
		<path class="st0" d="M70.6,17.9v-2.1c0-3.1-1.6-4.7-4.7-4.7H4.7c-3.1,0-4.7,1.6-4.7,4.7v6.6c0,3.1,1.6,4.7,4.7,4.7h18.8
			c3.1,0,4.7,1.6,4.7,4.7v71.9c0,3.1,1.6,4.7,4.7,4.7h4.7c3.1,0,4.7-1.6,4.7-4.7V31.8c0-3.1,1.6-4.7,4.7-4.7h18.8
			c3.1,0,4.7-1.6,4.7-4.7v-2.1H181v-2.4H70.6z"/>
		<path class="st0" d="M229.3,54.8c0-10.2,4.1-17,18.5-17h33.3c3.1,0,4.7,1.6,4.7,4.7v4.7c0,3.1-1.6,4.7-4.7,4.7h-29.5
			c-6.7,0-8.2,2.8-8.2,7.2v28c0,4.3,1.5,7.2,8.2,7.2h29.5c3.1,0,4.7,1.6,4.7,4.7v4.7c0,3.1-1.6,4.7-4.7,4.7h-33.3
			c-14.4,0-18.5-6.7-18.5-17V54.8z"/>
	</g>
</g>
</svg>
